#!OML:ASF E:\acrobat2\Project_11_07_03\Capture day 1\Session 1\Acrobat.ASF
:FULLY-SPECIFIED
:DEGREES
918
root 12.3923 16.1983 -13.284 -2.67171 -3.70446 -0.64039
lowerback 18.6722 -0.67696 -0.587123
upperback 3.70118 -1.03446 -0.326169
thorax -6.45771 -0.49779 0.231297
lowerneck -4.30491 -2.58945 0.644648
upperneck -6.91113 -3.34974 3.15744
head -1.37132 -1.73674 0.865762
rclavicle 1.39646e-014 -1.39149e-014
rhumerus -21.7445 9.1334 -83.4562
rradius 50.6641
rwrist -12.9986
rhand -13.8453 -33.5828
rfingers 7.12502
rthumb 12.2783 -63.2023
lclavicle 1.39646e-014 -1.39149e-014
lhumerus -10.3201 -46.0209 89.432
lradius 44.6589
lwrist 5.79908
lhand -14.3867 -381.058
lfingers 7.12502
lthumb 11.7562 -351.408
rfemur -21.0293 -7.82184 17.2445
rtibia 82.2983
rfoot -3.32652 4.61522
rtoes 0.0338078
lfemur -43.166 -3.72634 -17.6438
ltibia 46.1141
lfoot 9.13015 -13.7306
ltoes 50.3663
919
root 12.3967 16.2298 -13.4047 -2.66005 -3.57234 -0.985558
lowerback 18.0551 -0.628165 -0.279136
upperback 3.53353 -0.901466 -0.229371
thorax -6.31059 -0.43844 0.122054
lowerneck -3.54155 -2.64183 0.486173
upperneck -7.20284 -3.38992 3.28296
head -1.58839 -1.76383 0.949656
rclavicle 6.95746e-016 2.38542e-015
rhumerus -21.3999 9.70815 -83.2256
rradius 51.9978
rwrist -13.5654
rhand -13.6679 -34.1959
rfingers 7.12502
rthumb 12.4494 -63.8051
lclavicle 6.95746e-016 2.38542e-015
lhumerus -10.4514 -47.1025 90.1695
lradius 45.7986
lwrist 6.24557
lhand -13.9477 -381.114
lfingers 7.12502
lthumb 12.1795 -351.489
rfemur -18.523 -7.88087 17.8492
rtibia 80.0142
rfoot -2.15989 4.22734
rtoes 3.13622
lfemur -43.0071 -3.52497 -17.2791
ltibia 45.1933
lfoot 8.83103 -13.9494
ltoes 49.6193
920
root 12.3999 16.2567 -13.5297 -2.67293 -3.37345 -1.1782
lowerback 17.4274 -0.567716 -0.125783
upperback 3.46007 -0.787689 -0.171752
thorax -6.05276 -0.385963 0.0640778
lowerneck -3.75902 -2.82053 0.867813
upperneck -6.92349 -3.67375 2.71586
head -1.47455 -1.90113 0.701911
rclavicle -5.91384e-015 -1.66979e-014
rhumerus -20.6664 10.1657 -82.9287
rradius 53.0014
rwrist -14.0558
rhand -13.6632 -34.365
rfingers 7.12502
rthumb 12.4538 -63.974
lclavicle -5.91384e-015 -1.66979e-014
lhumerus -10.2978 -48.2148 90.6302
lradius 46.9041
lwrist 6.19336
lhand -14.1439 -381.467
lfingers 7.12502
lthumb 11.9903 -351.83
rfemur -16.0213 -7.97779 18.2913
rtibia 77.4941
rfoot -1.04668 3.62858
rtoes 6.57272
lfemur -42.826 -3.37656 -17.0974
ltibia 44.2157
lfoot 8.52889 -14.2298
ltoes 48.6606
921
root 12.4045 16.2788 -13.6575 -2.69658 -3.07447 -1.22059
lowerback 16.8363 -0.582411 -0.12033
upperback 3.39218 -0.802368 -0.138813
thorax -5.80575 -0.393422 0.0932914
lowerneck -4.10868 -2.74315 0.537723
upperneck -6.29123 -3.56869 2.97841
head -1.20713 -1.83382 0.821516
rclavicle -7.45443e-015 -2.18663e-015
rhumerus -19.9136 10.8344 -82.6238
rradius 53.9724
rwrist -14.5017
rhand -13.6544 -34.4341
rfingers 7.12502
rthumb 12.4623 -64.0426
lclavicle -7.45443e-015 -2.18663e-015
lhumerus -10.0668 -49.0825 90.9187
lradius 48.0509
lwrist 6.28174
lhand -13.7155 -381.709
lfingers 7.12502
lthumb 12.4034 -352.097
rfemur -13.4713 -8.03809 18.5379
rtibia 74.6032
rfoot -1.28135 2.09528
rtoes 8.95304
lfemur -42.6148 -3.23972 -17.1699
ltibia 43.1181
lfoot 8.51912 -14.3586
ltoes 47.9774
922
root 12.4103 16.2911 -13.7841 -2.63364 -2.88956 -1.28165
lowerback 16.2152 -0.578902 -0.0657104
upperback 3.23917 -0.786647 -0.125752
thorax -5.63306 -0.386784 0.0671589
lowerneck -4.31945 -2.69406 0.0729031
upperneck -5.59061 -3.4896 3.46856
head -0.93894 -1.7787 1.03681
rclavicle -6.75868e-015 5.96354e-016
rhumerus -19.3289 11.4905 -82.3653
rradius 54.9791
rwrist -14.7385
rhand -13.4438 -34.5423
rfingers 7.12502
rthumb 12.6654 -64.1383
lclavicle -6.75868e-015 5.96354e-016
lhumerus -9.84892 -49.9306 91.1526
lradius 49.1748
lwrist 6.78215
lhand -12.7206 -381.936
lfingers 7.12502
lthumb 13.3625 -352.385
rfemur -11.0593 -7.81128 18.8545
rtibia 71.3922
rfoot -1.40668 0.400883
rtoes 13.5688
lfemur -42.4953 -2.98134 -17.218
ltibia 42.006
lfoot 8.85809 -14.2974
ltoes 48.2862
923
root 12.4134 16.2937 -13.917 -2.37744 -2.73581 -1.6409
lowerback 15.5199 -0.590246 0.315026
upperback 3.03475 -0.735887 -0.0708115
thorax -5.4766 -0.3678 -0.106608
lowerneck -4.55851 -2.74642 -0.14312
upperneck -4.90718 -3.5645 3.73003
head -0.678497 -1.80284 1.14016
rclavicle 1.71949e-014 -1.66979e-014
rhumerus -18.6721 12.0154 -82.124
rradius 55.9126
rwrist -14.8807
rhand -13.3347 -34.7407
rfingers 7.12502
rthumb 12.7706 -64.3302
lclavicle 1.71949e-014 -1.66979e-014
lhumerus -9.53635 -50.47 91.2808
lradius 50.216
lwrist 6.77879
lhand -11.5462 -382.422
lfingers 7.12502
lthumb 14.4943 -352.948
rfemur -8.9812 -7.37473 19.6226
rtibia 68.1535
rfoot -3.79883 -0.00838204
rtoes 12.1675
lfemur -42.6498 -2.58769 -16.8467
ltibia 40.964
lfoot 9.01961 -14.2225
ltoes 48.5118
924
root 12.4153 16.2927 -14.0509 -2.14525 -2.36174 -1.9851
lowerback 14.7924 -0.685161 0.653047
upperback 2.87218 -0.804891 0.0302157
thorax -5.25575 -0.406267 -0.184569
lowerneck -4.63421 -2.747 -0.524439
upperneck -4.38339 -3.55889 4.01802
head -0.49266 -1.78747 1.28696
rclavicle 1.27222e-014 -1.21259e-014
rhumerus -17.8692 12.6361 -81.7784
rradius 56.6711
rwrist -14.885
rhand -13.4234 -34.6466
rfingers 7.12502
rthumb 12.685 -64.2414
lclavicle 1.27222e-014 -1.21259e-014
lhumerus -9.21783 -50.6572 91.4149
lradius 51.3309
lwrist 6.42625
lhand -9.93714 -382.707
lfingers 7.12502
lthumb 16.0442 -353.352
rfemur -6.83125 -7.06016 20.3346
rtibia 64.9665
rfoot -11.3203 3.99437
rtoes 9.96979
lfemur -42.8196 -2.32105 -16.5604
ltibia 39.9543
lfoot 9.10532 -14.2041
ltoes 48.3939
925
root 12.4204 16.2855 -14.1846 -1.86561 -2.03411 -2.12721
lowerback 14.0155 -0.745658 0.82416
upperback 2.69543 -0.862033 0.0845397
thorax -5.01984 -0.436575 -0.221361
lowerneck -4.43475 -2.79027 -0.719279
upperneck -4.2628 -3.61181 3.99682
head -0.483929 -1.81138 1.31459
rclavicle 1.18774e-014 -9.74045e-015
rhumerus -17.071 13.1943 -81.4202
rradius 57.3555
rwrist -14.6718
rhand -13.2235 -34.0915
rfingers 7.12502
rthumb 12.8778 -63.6742
lclavicle 1.18774e-014 -9.74045e-015
lhumerus -8.95699 -50.8728 91.5521
lradius 52.5514
lwrist 6.53089
lhand -8.24022 -382.734
lfingers 7.12502
lthumb 17.6777 -353.518
rfemur -4.81796 -6.81179 20.7835
rtibia 61.9977
rfoot -17.7335 7.26681
rtoes 10.9215
lfemur -43.0805 -2.02028 -16.5716
ltibia 38.9853
lfoot 9.5073 -14.0849
ltoes 48.8159
926
root 12.4306 16.2728 -14.3304 -1.52106 -2.0611 -2.29028
lowerback 13.4004 -0.681003 1.15162
upperback 2.48089 -0.738852 0.0302662
thorax -4.91192 -0.381626 -0.490464
lowerneck -4.31688 -2.88646 -0.745656
upperneck -4.18059 -3.74077 4.0105
head -0.474114 -1.87559 1.32284
rclavicle 7.90169e-015 -1.35174e-014
rhumerus -16.322 13.5422 -81.1849
rradius 58.0775
rwrist -14.4121
rhand -12.936 -33.9123
rfingers 7.12502
rthumb 13.1549 -63.4773
lclavicle 7.90169e-015 -1.35174e-014
lhumerus -8.55976 -51.4268 91.434
lradius 53.5785
lwrist 6.49801
lhand -7.49411 -383.095
lfingers 7.12502
lthumb 18.3956 -353.944
rfemur -3.3423 -6.48937 21.3171
rtibia 59.4886
rfoot -21.56 6.69025
rtoes 7.18968
lfemur -43.4393 -1.4363 -16.4833
ltibia 38.051
lfoot 9.83205 -13.8914
ltoes 49.2522
927
root 12.4358 16.2593 -14.4841 -1.19527 -2.25863 -2.63023
lowerback 12.8721 -0.536668 1.60402
upperback 2.27343 -0.494614 -0.0091947
thorax -4.8392 -0.269227 -0.832264
lowerneck -4.02299 -2.95969 -0.763461
upperneck -4.20184 -3.83221 4.19866
head -0.522871 -1.92481 1.38961
rclavicle 2.28602e-014 -2.34566e-014
rhumerus -15.7143 13.8219 -80.9674
rradius 58.8939
rwrist -14.0793
rhand -13.0321 -34.0581
rfingers 7.12502
rthumb 13.0623 -63.629
lclavicle 2.28602e-014 -2.34566e-014
lhumerus -8.10148 -52.0838 91.2015
lradius 54.5879
lwrist 6.17123
lhand -6.99818 -383.559
lfingers 7.12502
lthumb 18.8726 -354.454
rfemur -2.47229 -6.20296 22.1622
rtibia 57.5411
rfoot -25.1245 4.57113
rtoes 0.938904
lfemur -43.7652 -0.617979 -16.1291
ltibia 37.1279
lfoot 9.85444 -13.9939
ltoes 49.0127
928
root 12.4384 16.2398 -14.6353 -0.698675 -2.40334 -2.85704
lowerback 12.0968 -0.42389 1.81488
upperback 2.01522 -0.329351 0.0114556
thorax -4.67916 -0.191343 -0.959652
lowerneck -3.41089 -3.006 -0.694912
upperneck -4.51277 -3.88616 4.11757
head -0.722037 -1.96238 1.36769
rclavicle -1.36664e-014 -8.34896e-015
rhumerus -15.2231 14.2538 -80.6961
rradius 59.7213
rwrist -13.6281
rhand -13.0302 -33.8749
rfingers 7.12502
rthumb 13.0641 -63.4458
lclavicle -1.36664e-014 -8.34896e-015
lhumerus -7.78195 -52.2233 91.1086
lradius 55.8072
lwrist 6.1923
lhand -5.74821 -383.459
lfingers 7.12502
lthumb 20.0744 -354.476
rfemur -2.29587 -5.96189 22.9697
rtibia 55.8787
rfoot -29.016 3.36191
rtoes -2.91329
lfemur -44.2962 0.276838 -15.9839
ltibia 36.2617
lfoot 9.87177 -14.4583
ltoes 48.5528
929
root 12.4501 16.2317 -14.7917 -0.533393 -2.37711 -2.70315
lowerback 11.7842 -0.406366 1.71412
upperback 1.89017 -0.327159 -0.0490849
thorax -4.63716 -0.189512 -0.967235
lowerneck -3.30797 -3.02289 -0.712563
upperneck -4.61875 -3.9075 4.00912
head -0.7732 -1.97423 1.33998
rclavicle 8.29926e-015 -1.35174e-014
rhumerus -14.4719 14.7279 -80.4078
rradius 60.3731
rwrist -13.0974
rhand -12.8167 -33.3495
rfingers 7.12502
rthumb 13.2699 -62.9071
lclavicle 8.29926e-015 -1.35174e-014
lhumerus -7.14542 -52.2042 90.7804
lradius 56.903
lwrist 6.45409
lhand -4.66895 -383.126
lfingers 7.12502
lthumb 21.1115 -354.255
rfemur -1.99595 -5.84874 23.235
rtibia 54.0962
rfoot -32.9778 4.05817
rtoes -2.98178
lfemur -44.3113 0.72973 -16.3091
ltibia 35.1611
lfoot 9.55888 -15.11
ltoes 47.8708
930
root 12.4635 16.224 -14.9582 -0.221572 -2.28303 -2.64635
lowerback 11.545 -0.434983 1.81087
upperback 1.73845 -0.360887 -0.139537
thorax -4.66584 -0.209519 -1.11159
lowerneck -3.49087 -3.13047 -0.60648
upperneck -4.72018 -4.05325 3.94885
head -0.77389 -2.04773 1.3
rclavicle -4.12478e-015 2.22639e-014
rhumerus -13.6474 15.145 -80.1953
rradius 60.9388
rwrist -12.3963
rhand -12.8722 -32.9186
rfingers 7.12502
rthumb 13.2164 -62.4796
lclavicle -4.12478e-015 2.22639e-014
lhumerus -6.42332 -52.321 90.3523
lradius 57.767
lwrist 6.4184
lhand -4.49205 -383.244
lfingers 7.12502
lthumb 21.2814 -354.392
rfemur -2.03408 -5.86943 23.6084
rtibia 52.5441
rfoot -36.1623 3.3805
rtoes -2.2585
lfemur -44.5426 1.05544 -16.5069
ltibia 34.1017
lfoot 9.10248 -15.5857
ltoes 47.1312
931
root 12.4819 16.2215 -15.1123 0.0520055 -2.61364 -2.72212
lowerback 11.2697 -0.352685 2.04309
upperback 1.58623 -0.23157 -0.212532
thorax -4.66951 -0.151394 -1.33899
lowerneck -3.59659 -2.70633 -1.1183
upperneck -4.2211 -3.47607 4.40353
head -0.599078 -1.74695 1.52659
rclavicle -1.12313e-014 7.95139e-015
rhumerus -13.0795 15.5822 -80.0764
rradius 61.5487
rwrist -11.4672
rhand -13.0001 -32.5108
rfingers 7.12502
rthumb 13.0931 -62.0798
lclavicle -1.12313e-014 7.95139e-015
lhumerus -6.04472 -52.2364 90.1486
lradius 58.6345
lwrist 6.02047
lhand -4.72259 -383.363
lfingers 7.12502
lthumb 21.0599 -354.486
rfemur -2.00516 -5.63914 24.0852
rtibia 51.1276
rfoot -38.7323 1.98099
rtoes -1.11583
lfemur -44.5553 1.87266 -16.5551
ltibia 32.8783
lfoot 8.32696 -15.9738
ltoes 45.4773
932
root 12.5045 16.2217 -15.2657 0.264215 -2.82707 -2.61899
lowerback 11.0047 -0.287355 2.0407
upperback 1.53522 -0.153698 -0.271485
thorax -4.57288 -0.112804 -1.41098
lowerneck -3.44203 -2.69526 -1.2159
upperneck -4.71141 -3.4394 4.54055
head -0.77437 -1.73533 1.59676
rclavicle -1.83876e-015 -2.14687e-014
rhumerus -12.5405 15.9433 -79.8725
rradius 62.2017
rwrist -10.3931
rhand -13.0135 -31.881
rfingers 7.12502
rthumb 13.0802 -61.4508
lclavicle -1.83876e-015 -2.14687e-014
lhumerus -5.5532 -51.6647 89.9161
lradius 59.449
lwrist 4.67424
lhand -4.34958 -383.712
lfingers 7.12502
lthumb 21.4182 -354.876
rfemur -1.98779 -5.42126 24.2944
rtibia 49.7104
rfoot -40.8276 0.818926
rtoes 1.17801
lfemur -44.4805 2.54733 -16.8959
ltibia 31.6923
lfoot 7.21181 -16.2475
ltoes 43.203
